<svg width="15" height="15" viewBox="0 0 15 15" fill="none" xmlns="http://www.w3.org/2000/svg">
<path d="M12.4998 10V3.125C12.4998 2.62772 12.6973 2.15081 13.0489 1.79917C13.4006 1.44754 13.8775 1.25 14.3748 1.25C14.5405 1.25 14.6995 1.18415 14.8167 1.06694C14.9339 0.949732 14.9998 0.79076 14.9998 0.625C14.9998 0.45924 14.9339 0.300269 14.8167 0.183058C14.6995 0.065848 14.5405 0 14.3748 0C13.5463 0.000992411 12.752 0.330551 12.1661 0.916387C11.5803 1.50222 11.2508 2.2965 11.2498 3.125V10.1744L9.54101 10.7444C9.54414 10.532 9.51117 10.3207 9.44351 10.1194L8.47289 6.93187C8.3211 6.45862 7.98803 6.06476 7.54656 5.83647C7.1051 5.60819 6.59118 5.56406 6.11726 5.71375L1.92976 7.045C1.4618 7.19653 1.07171 7.52515 0.842901 7.96057C0.614094 8.39599 0.564737 8.90366 0.705385 9.375L1.72663 12.7331C1.79337 12.9204 1.88981 13.0958 2.01226 13.2525L0.42726 13.7806C0.269788 13.833 0.139573 13.9458 0.0652616 14.0942C-0.00904971 14.2426 -0.0213704 14.4144 0.0310098 14.5719C0.0833901 14.7293 0.196181 14.8596 0.344569 14.9339C0.492957 15.0082 0.664787 15.0205 0.82226 14.9681L10.0623 11.8894C9.97159 12.2577 9.96558 12.6419 10.0447 13.0129C10.1238 13.3839 10.2859 13.7322 10.5189 14.0315C10.752 14.3309 11.0498 14.5736 11.39 14.7413C11.7303 14.909 12.1042 14.9975 12.4835 15C15.7698 14.915 15.7841 10.1056 12.4998 10ZM2.91351 12.3425L1.90163 9.01312C1.85508 8.85566 1.87197 8.68622 1.94871 8.54105C2.02544 8.39587 2.15592 8.28648 2.31226 8.23625L6.49976 6.905C6.65642 6.85521 6.82639 6.86914 6.97285 6.94377C7.11931 7.01841 7.23048 7.14774 7.28226 7.30375L8.24976 10.495L8.25663 10.5144C8.30568 10.6584 8.3005 10.8154 8.24204 10.9559C8.18359 11.0964 8.07589 11.2108 7.93913 11.2775L3.63413 12.715C3.48934 12.7488 3.33725 12.7298 3.20518 12.6615C3.0731 12.5933 2.96969 12.4802 2.91351 12.3425ZM12.4835 13.75C12.152 13.75 11.834 13.6183 11.5996 13.3839C11.3652 13.1495 11.2335 12.8315 11.2335 12.5C11.2335 12.1685 11.3652 11.8505 11.5996 11.6161C11.834 11.3817 12.152 11.25 12.4835 11.25C12.815 11.25 13.133 11.3817 13.3674 11.6161C13.6018 11.8505 13.7335 12.1685 13.7335 12.5C13.7335 12.8315 13.6018 13.1495 13.3674 13.3839C13.133 13.6183 12.815 13.75 12.4835 13.75ZM6.28101 8.75C6.30588 8.82822 6.3151 8.91057 6.30814 8.99235C6.30119 9.07413 6.27819 9.15374 6.24047 9.22664C6.20274 9.29953 6.15103 9.36428 6.08828 9.41719C6.02553 9.4701 5.95298 9.51013 5.87476 9.535L4.33476 10.0256C4.17671 10.0759 4.00518 10.0612 3.8579 9.98499C3.71063 9.90874 3.59967 9.77711 3.54945 9.61906C3.49922 9.46101 3.51384 9.28948 3.59009 9.1422C3.66633 8.99493 3.79796 8.88398 3.95601 8.83375L5.49663 8.34375C5.65452 8.29371 5.82581 8.3084 5.97289 8.38457C6.11996 8.46074 6.23078 8.59217 6.28101 8.75Z" fill="#EF4444"/>
</svg>
