<svg width="164" height="164" viewBox="0 0 164 164" fill="none" xmlns="http://www.w3.org/2000/svg">
<g clipPath="url(#clip0_254_13982)">
<path d="M90.8555 82.0022L108.998 100.142L100.149 108.989L82.0067 90.8495L63.851 109L55.0022 100.153L73.1579 82.0022L55 63.8473L63.8488 55L82.0067 73.1549L100.151 55.0112L109 63.8585L90.8555 82.0022Z" fill="#EF4444"/>
</g>
<g filter="url(#filter0_ddd_254_13982)">
<path d="M81.9993 130C55.5322 130 34 108.468 34 82.0007C34 55.5336 55.5322 34 81.9993 34C108.466 34 130 55.5322 130 81.9993C130 108.466 108.466 130 81.9993 130ZM81.9993 38.5832C58.0592 38.5832 38.5832 58.0592 38.5832 81.9993C38.5832 105.939 58.0592 125.415 81.9993 125.415C105.939 125.415 125.415 105.939 125.415 81.9993C125.415 58.0592 105.939 38.5832 81.9993 38.5832Z" fill="#EF4444"/>
</g>
<defs>
<filter id="filter0_ddd_254_13982" x="0" y="0" width="164" height="164" filterUnits="userSpaceOnUse" color-interpolation-filters="sRGB">
<feFlood flood-opacity="0" result="BackgroundImageFix"/>
<feColorMatrix in="SourceAlpha" type="matrix" values="0 0 0 0 0 0 0 0 0 0 0 0 0 0 0 0 0 0 127 0" result="hardAlpha"/>
<feOffset/>
<feGaussianBlur stdDeviation="17"/>
<feComposite in2="hardAlpha" operator="out"/>
<feColorMatrix type="matrix" values="0 0 0 0 0.937255 0 0 0 0 0.270588 0 0 0 0 0.270588 0 0 0 1 0"/>
<feBlend mode="normal" in2="BackgroundImageFix" result="effect1_dropShadow_254_13982"/>
<feColorMatrix in="SourceAlpha" type="matrix" values="0 0 0 0 0 0 0 0 0 0 0 0 0 0 0 0 0 0 127 0" result="hardAlpha"/>
<feOffset/>
<feGaussianBlur stdDeviation="8"/>
<feComposite in2="hardAlpha" operator="out"/>
<feColorMatrix type="matrix" values="0 0 0 0 0.937255 0 0 0 0 0.266667 0 0 0 0 0.266667 0 0 0 1 0"/>
<feBlend mode="normal" in2="effect1_dropShadow_254_13982" result="effect2_dropShadow_254_13982"/>
<feColorMatrix in="SourceAlpha" type="matrix" values="0 0 0 0 0 0 0 0 0 0 0 0 0 0 0 0 0 0 127 0" result="hardAlpha"/>
<feOffset/>
<feGaussianBlur stdDeviation="16.5"/>
<feComposite in2="hardAlpha" operator="out"/>
<feColorMatrix type="matrix" values="0 0 0 0 0.937255 0 0 0 0 0.266667 0 0 0 0 0.266667 0 0 0 1 0"/>
<feBlend mode="normal" in2="effect2_dropShadow_254_13982" result="effect3_dropShadow_254_13982"/>
<feBlend mode="normal" in="SourceGraphic" in2="effect3_dropShadow_254_13982" result="shape"/>
</filter>
<clipPath id="clip0_254_13982">
<rect width="54" height="54" fill="white" transform="translate(55 55)"/>
</clipPath>
</defs>
</svg>
