<svg xmlns="http://www.w3.org/2000/svg" width="25" height="24" viewBox="0 0 25 24" fill="none">
<path d="M14.3496 12C14.3496 13.2204 13.3326 14.2373 12.1123 14.2373C10.892 14.2373 9.875 13.2204 9.875 12C9.875 10.7797 10.892 9.76273 12.1123 9.76273C13.4004 9.76273 14.3496 10.7797 14.3496 12Z" fill="#F8FAFC" fill-opacity="0.3"/>
<path d="M14.891 6.30508H9.26389C7.63677 6.30508 6.34863 7.59322 6.34863 9.22034V14.8475C6.34863 16.4746 7.63677 17.7627 9.26389 17.7627H14.891C16.5181 17.7627 17.8063 16.4746 17.8063 14.8475V9.22034C17.8063 7.59322 16.5181 6.30508 14.891 6.30508ZM12.1791 15.4576C10.2808 15.4576 8.72151 13.8983 8.72151 12C8.72151 10.1017 10.2808 8.54237 12.1791 8.54237C14.0774 8.54237 15.6368 10.1017 15.6368 12C15.6368 13.8983 14.0774 15.4576 12.1791 15.4576ZM15.8402 9.15254C15.3656 9.15254 15.0266 8.81356 15.0266 8.33898C15.0266 7.86441 15.3656 7.52542 15.8402 7.52542C16.3147 7.52542 16.6537 7.86441 16.6537 8.33898C16.6537 8.74576 16.3147 9.15254 15.8402 9.15254Z" fill="#F8FAFC" fill-opacity="0.3"/>
<path d="M12.1113 0C5.46726 0 0.111328 5.42373 0.111328 12C0.111328 18.6441 5.46726 24 12.1113 24C18.7554 24 24.1113 18.6441 24.1113 12C24.1113 5.42373 18.7554 0 12.1113 0ZM19.1622 14.7797C19.1622 17.0847 17.2639 18.983 14.9588 18.983H9.33167C7.02658 18.983 5.12828 17.0847 5.12828 14.7797V9.15254C5.12828 6.84746 7.02658 4.94915 9.33167 4.94915H14.9588C17.2639 4.94915 19.1622 6.84746 19.1622 9.15254V14.7797Z" fill="#F8FAFC" fill-opacity="0.3"/>
</svg>
