<svg width="138" height="44" viewBox="0 0 138 44" fill="none" xmlns="http://www.w3.org/2000/svg">
<g clip-path="url(#clip0_364_4613)">
<path d="M34.7219 20.4802H23.0677C22.5255 20.4802 22.0112 20.9157 21.9185 21.4532L21.4876 23.96C21.3949 24.4975 21.761 24.933 22.3078 24.933H32.9657C33.2947 24.933 33.5171 25.1879 33.4615 25.5122L33.2715 26.6104C33.2159 26.9301 32.9054 27.1942 32.5811 27.1942H26.6914C26.1539 27.1942 25.6395 27.6297 25.5468 28.1672C25.431 28.8066 25.292 29.6129 25.1761 30.2523C25.0834 30.7898 25.4449 31.23 25.9824 31.23H31.8674C32.1965 31.23 32.4142 31.4895 32.354 31.8138L32.1547 32.9073C32.0945 33.2317 31.784 33.4865 31.455 33.4865H20.7971C20.2503 33.4865 19.736 33.9221 19.634 34.4596L19.1799 36.9663C19.0826 37.5038 19.444 37.9393 19.9908 37.9393H31.645C34.2029 37.9393 36.645 35.8959 37.1037 33.3799L37.4235 31.596C37.5857 30.7064 37.4235 29.9094 37.0991 29.2098C37.6552 28.5286 38.0907 27.7502 38.2529 26.8837C38.2576 26.8652 38.2622 26.842 38.2668 26.8189L38.5727 25.0396C39.0036 22.5236 37.2798 20.4802 34.7219 20.4802Z" fill="#448BCA"/>
<path d="M54.6894 20.4848H43.0305C42.4884 20.4848 41.9694 20.9158 41.8721 21.4486L40.8989 26.8328L40.2641 30.3635L39.0686 36.9709C38.9713 37.5038 39.3327 37.9393 39.8749 37.9393H51.5337C54.0823 37.9393 56.5198 35.9052 56.9692 33.3985L58.4845 25.0257C58.9386 22.519 57.238 20.4848 54.6894 20.4848ZM51.8117 32.8008C51.7515 33.1205 51.441 33.3799 51.1167 33.3799H45.5745C45.2502 33.3799 45.0324 33.1205 45.0926 32.8008L46.3994 25.5585C46.455 25.2388 46.7701 24.9794 47.0944 24.9794H52.6366C52.9609 24.9794 53.1787 25.2342 53.1231 25.5585L51.8117 32.8008Z" fill="#448BCA"/>
<path d="M75.1889 20.5312H62.784C62.2418 20.5312 61.7228 20.9621 61.6301 21.4949L58.8313 36.9709C58.7339 37.5038 59.0954 37.9393 59.6376 37.9393H62.9183C63.4605 37.9393 63.9749 37.5038 64.0722 36.9709L64.656 33.7599C64.6746 33.6533 64.7765 33.5653 64.8831 33.5653H72.8348C75.3835 33.5606 77.8163 31.5265 78.2704 29.0198L78.984 25.0674C79.4381 22.5606 77.7375 20.5312 75.1889 20.5312ZM73.5994 25.7485L73.1268 28.3479C73.0387 28.8252 72.58 29.2098 72.0981 29.2098H65.6755C65.5689 29.2098 65.4994 29.1217 65.5179 29.0152L66.2269 25.0813C66.2455 24.9747 66.3474 24.8867 66.4586 24.8867H72.8766C73.3585 24.882 73.6828 25.2713 73.5994 25.7485Z" fill="white"/>
<path d="M97.0568 36.7254L92.08 21.4625C91.7603 20.5497 90.8937 20.5729 90.8937 20.5729C90.435 20.5729 90.0318 20.5636 89.6704 20.5636C89.5638 20.5636 89.4758 20.5682 89.3738 20.5636H89.2395C88.9568 20.5636 88.6926 20.559 88.4471 20.5682V20.5821C88.4471 20.5821 88.4424 20.5821 88.4378 20.5868V20.5682C87.5481 20.6053 86.8947 20.7721 86.3803 21.4625L76.3063 36.7254C76.1256 36.9802 76.0746 37.2906 76.1812 37.5362C76.2878 37.7864 76.5334 37.9393 76.8253 37.9393H81.0143C81.3248 37.9393 81.6399 37.7679 81.8299 37.4991L82.4833 36.5724L82.8262 36.0535H91.2228L91.6676 37.4899C91.751 37.7633 91.9781 37.9347 92.2515 37.9347H96.2181C96.4776 37.9347 96.7417 37.7818 96.9132 37.5362C97.0846 37.286 97.1402 36.9802 97.0568 36.7254ZM85.5416 31.9065L88.5166 27.3749L89.9484 31.9065H85.5416Z" fill="white"/>
<path d="M99.3645 37.9393C98.8223 37.9393 98.4609 37.5084 98.5536 36.9756L101.352 21.4949C101.45 20.9621 101.969 20.5312 102.511 20.5312H114.916C117.464 20.5312 119.165 22.5653 118.711 25.072L117.997 29.0291C117.687 30.7481 116.436 32.2355 114.86 33.0046C114.749 33.0602 114.689 33.1853 114.744 33.2826L116.788 36.8412C117.057 37.3231 116.723 37.8976 116.172 37.8976C114.462 37.8976 113.401 37.9532 112.705 37.944C111.515 37.9625 111.121 37.9115 110.903 37.4806L109.031 33.8294C108.952 33.6718 108.785 33.5745 108.591 33.5745H104.619C104.513 33.5792 104.406 33.6672 104.388 33.7738L103.808 36.9848C103.711 37.5177 103.192 37.9486 102.65 37.9486H99.3691L99.3645 37.9393ZM105.245 29.0105C105.226 29.1171 105.3 29.2051 105.407 29.2051H111.825C112.307 29.2051 112.77 28.8205 112.854 28.3479L113.326 25.7439C113.414 25.2666 113.09 24.882 112.608 24.882H106.19C106.084 24.882 105.977 24.9701 105.958 25.0767L105.245 29.0105Z" fill="white"/>
<path d="M137.932 21.5088L137.478 24.0063C137.381 24.5392 136.862 24.9701 136.32 24.9701H131.519C131.412 24.9701 131.306 25.0581 131.287 25.1647L129.151 36.9709C129.054 37.5038 128.535 37.9347 127.992 37.9347H124.712C124.17 37.9347 123.808 37.5038 123.901 36.9709L126.037 25.1647C126.055 25.0581 125.986 24.9701 125.875 24.9701H121.074C120.532 24.9701 120.17 24.5392 120.268 24.0063L120.717 21.5088C120.815 20.976 121.334 20.5451 121.876 20.5451H137.117C137.659 20.5451 138.02 20.976 137.923 21.5088H137.932Z" fill="white"/>
<path d="M59.2256 41.6832H4.01294L25.4076 4.63353L32.8774 16.7178H35.5511L25.4076 0L0 44H60.5648L59.2256 41.6832Z" fill="#448BCA"/>
</g>
<defs>
<clipPath id="clip0_364_4613">
<rect width="137.946" height="44" fill="white"/>
</clipPath>
</defs>
</svg>
