<svg width="41" height="24" viewBox="0 0 41 24" fill="none" xmlns="http://www.w3.org/2000/svg">
<path d="M26.9547 24H21.4017V0H26.9547V24ZM19.3997 12.0004C19.3997 13.9564 18.8341 15.8685 17.7744 17.4948C16.7147 19.1212 15.2085 20.3888 13.4462 21.1373C11.684 21.8858 9.74484 22.0817 7.87404 21.7001C6.00325 21.3185 4.28482 20.3766 2.93605 18.9935C1.58729 17.6104 0.668767 15.8482 0.296643 13.9298C-0.0754807 12.0113 0.115507 10.0228 0.845454 8.21573C1.5754 6.40861 2.81152 4.86404 4.3975 3.77734C5.98349 2.69065 7.84809 2.11062 9.75554 2.11062C11.022 2.11062 12.2761 2.36643 13.4462 2.86343C14.6163 3.36044 15.6795 4.08891 16.575 5.00726C17.4706 5.92561 18.181 7.01585 18.6656 8.21573C19.1503 9.41561 19.3997 10.7016 19.3997 12.0004ZM12.6777 12.0004C12.6777 11.4075 12.5063 10.828 12.1851 10.3351C11.8639 9.84215 11.4073 9.45798 10.8732 9.23114C10.3391 9.0043 9.75133 8.94498 9.18432 9.0607C8.61731 9.17641 8.0965 9.46195 7.68776 9.88121C7.27901 10.3005 7.00069 10.8346 6.88799 11.4161C6.77529 11.9975 6.83328 12.6002 7.05461 13.1479C7.27595 13.6956 7.6507 14.1636 8.13146 14.4929C8.61223 14.8222 9.17741 14.9978 9.75554 14.9977C10.1393 14.9977 10.5194 14.9202 10.874 14.7695C11.2286 14.6189 11.5507 14.3981 11.8221 14.1198C12.0934 13.8414 12.3087 13.511 12.4555 13.1473C12.6023 12.7837 12.6778 12.3939 12.6777 12.0004ZM41.0002 5.9902H37.3078L35.1443 8.20879L32.9808 5.9902H29.2884V9.83576L31.4224 12.024L29.2884 14.213V18.0061H33.0284L35.1422 15.8385L37.2559 18.0061H41.0002V14.216L38.8656 12.027L41.0002 9.83576V5.9902Z" fill="#F8FAFC" fill-opacity="0.3"/>
</svg>
