<svg width="164" height="164" viewBox="0 0 164 164" fill="none" xmlns="http://www.w3.org/2000/svg">
<g filter="url(#filter0_ddd_91_9521)">
<path d="M81.9993 130C55.5322 130 34 108.468 34 82.0007C34 55.5336 55.5322 34 81.9993 34C108.466 34 130 55.5322 130 81.9993C130 108.466 108.466 130 81.9993 130ZM81.9993 38.5832C58.0592 38.5832 38.5832 58.0592 38.5832 81.9993C38.5832 105.939 58.0592 125.415 81.9993 125.415C105.939 125.415 125.415 105.939 125.415 81.9993C125.415 58.0592 105.939 38.5832 81.9993 38.5832Z" fill="#00CC60"/>
</g>
<path d="M72.6918 105.685L52.7773 85.771L59.9423 78.6061L72.6918 91.3556L104.896 59.1515L112.061 66.3164L72.6918 105.685Z" fill="#00CC60"/>
<defs>
<filter id="filter0_ddd_91_9521" x="0" y="0" width="164" height="164" filterUnits="userSpaceOnUse" color-interpolation-filters="sRGB">
<feFlood flood-opacity="0" result="BackgroundImageFix"/>
<feColorMatrix in="SourceAlpha" type="matrix" values="0 0 0 0 0 0 0 0 0 0 0 0 0 0 0 0 0 0 127 0" result="hardAlpha"/>
<feOffset/>
<feGaussianBlur stdDeviation="17"/>
<feComposite in2="hardAlpha" operator="out"/>
<feColorMatrix type="matrix" values="0 0 0 0 0 0 0 0 0 0.8 0 0 0 0 0.376471 0 0 0 1 0"/>
<feBlend mode="normal" in2="BackgroundImageFix" result="effect1_dropShadow_91_9521"/>
<feColorMatrix in="SourceAlpha" type="matrix" values="0 0 0 0 0 0 0 0 0 0 0 0 0 0 0 0 0 0 127 0" result="hardAlpha"/>
<feOffset/>
<feGaussianBlur stdDeviation="8"/>
<feComposite in2="hardAlpha" operator="out"/>
<feColorMatrix type="matrix" values="0 0 0 0 0 0 0 0 0 0.8 0 0 0 0 0.376471 0 0 0 1 0"/>
<feBlend mode="normal" in2="effect1_dropShadow_91_9521" result="effect2_dropShadow_91_9521"/>
<feColorMatrix in="SourceAlpha" type="matrix" values="0 0 0 0 0 0 0 0 0 0 0 0 0 0 0 0 0 0 127 0" result="hardAlpha"/>
<feOffset/>
<feGaussianBlur stdDeviation="16.5"/>
<feComposite in2="hardAlpha" operator="out"/>
<feColorMatrix type="matrix" values="0 0 0 0 0 0 0 0 0 0.8 0 0 0 0 0.376471 0 0 0 1 0"/>
<feBlend mode="normal" in2="effect2_dropShadow_91_9521" result="effect3_dropShadow_91_9521"/>
<feBlend mode="normal" in="SourceGraphic" in2="effect3_dropShadow_91_9521" result="shape"/>
</filter>
</defs>
</svg>
